<svg xmlns="http://www.w3.org/2000/svg" width="206" height="48" fill="none"><path fill="#000" d="M69.048 10.675V1.526c0-.21.105-.368.315-.368h8.834c.21 0 .368.105.368.368v.631c0 .21-.105.368-.368.368h-7.782v2.892h5.573c.21 0 .368.105.368.368v.631c0 .21-.105.368-.368.368h-5.573v3.996c0 .21-.105.368-.368.368h-.684c-.157-.105-.315-.262-.315-.473"/><path stroke="#000" stroke-miterlimit="10" d="M69.048 10.675V1.526c0-.21.105-.368.315-.368h8.834c.21 0 .368.105.368.368v.631c0 .21-.105.368-.368.368h-7.782v2.892h5.573c.21 0 .368.105.368.368v.631c0 .21-.105.368-.368.368h-5.573v3.996c0 .21-.105.368-.368.368h-.684c-.157-.105-.315-.262-.315-.473Z"/><path fill="#000" d="M81.036 6.1c0 2.261 1.893 3.786 4.312 3.786 2.366 0 4.311-1.577 4.311-3.786 0-2.26-1.945-3.785-4.311-3.785-2.419 0-4.312 1.524-4.312 3.785m10.043 0c0 2.997-2.576 5.1-5.731 5.1s-5.731-2.103-5.731-5.1S82.14 1 85.347 1s5.732 2.103 5.732 5.1"/><path stroke="#000" stroke-miterlimit="10" d="M81.036 6.1c0 2.261 1.893 3.786 4.312 3.786 2.366 0 4.311-1.577 4.311-3.786 0-2.26-1.945-3.785-4.311-3.785-2.419 0-4.312 1.524-4.312 3.785Zm10.043 0c0 2.997-2.576 5.1-5.731 5.1s-5.731-2.103-5.731-5.1S82.14 1 85.347 1s5.732 2.103 5.732 5.1Z"/><path fill="#000" d="M94.024 6.364V1.526c0-.21.105-.368.315-.368h.683c.21 0 .369.105.369.368v4.838c0 2.839 1.577 3.523 3.522 3.523 1.946 0 3.523-.684 3.523-3.523V1.526c0-.21.105-.368.368-.368h.684c.21 0 .315.105.315.368v4.838c0 3.785-2.103 4.837-4.89 4.837s-4.89-1.052-4.89-4.837"/><path stroke="#000" stroke-miterlimit="10" d="M94.024 6.364V1.526c0-.21.105-.368.315-.368h.683c.21 0 .369.105.369.368v4.838c0 2.839 1.577 3.523 3.522 3.523 1.946 0 3.523-.684 3.523-3.523V1.526c0-.21.105-.368.368-.368h.684c.21 0 .315.105.315.368v4.838c0 3.785-2.103 4.837-4.89 4.837s-4.89-1.052-4.89-4.837Z"/><path fill="#000" d="M115.108 2.473v7.256h4.049c2.681 0 3.891-1.683 3.891-3.733 0-1.788-1.262-3.47-3.891-3.47h-4.049zm-1.42 8.202V1.526q0-.315.316-.315h5.1c3.26 0 5.311 1.945 5.311 4.732 0 3.733-2.577 5.1-5.258 5.1h-5.153c-.158 0-.316-.157-.316-.368"/><path stroke="#000" stroke-miterlimit="10" d="M115.108 2.473v7.256h4.049c2.681 0 3.891-1.683 3.891-3.733 0-1.788-1.262-3.47-3.891-3.47h-4.049zm-1.42 8.202V1.526q0-.315.316-.315h5.1c3.26 0 5.311 1.945 5.311 4.732 0 3.733-2.577 5.1-5.258 5.1h-5.153c-.158 0-.316-.157-.316-.368Z"/><path fill="#000" d="M127.464 10.675V1.526c0-.21.106-.368.316-.368h8.833c.211 0 .368.105.368.368v.631c0 .21-.105.368-.368.368h-7.781v2.84h5.573c.21 0 .368.105.368.368v.63c0 .211-.105.369-.368.369h-5.573v3.05h7.781c.211 0 .368.105.368.367v.631c0 .21-.105.368-.368.368h-8.833c-.158-.105-.316-.262-.316-.473"/><path stroke="#000" stroke-miterlimit="10" d="M127.464 10.675V1.526c0-.21.106-.368.316-.368h8.833c.211 0 .368.105.368.368v.631c0 .21-.105.368-.368.368h-7.781v2.84h5.573c.21 0 .368.105.368.368v.63c0 .211-.105.369-.368.369h-5.573v3.05h7.781c.211 0 .368.105.368.367v.631c0 .21-.105.368-.368.368h-8.833c-.158-.105-.316-.262-.316-.473Z"/><path fill="#000" d="m49.173 19.088 4.153 3.47.526-.42-3.996-6.31h-.63l-5.68 6.257.421.473z"/><path stroke="#000" stroke-miterlimit="10" d="m49.173 19.088 4.153 3.47.526-.42-3.996-6.31h-.63l-5.68 6.257.421.473z"/><path fill="#000" d="M83.35 16.984c-.105 0-.263-.053-.368-.053-1.525 0-2.945 1.367-2.945 3.05 0 1.315.894 2.366 2.261 2.366.158 0 .263 0 .42-.052 1.368-.21 2.577-1.525 2.577-2.998a2.36 2.36 0 0 0-1.945-2.313"/><path stroke="#000" stroke-miterlimit="10" d="M83.35 16.984c-.105 0-.263-.053-.368-.053-1.525 0-2.945 1.367-2.945 3.05 0 1.315.894 2.366 2.261 2.366.158 0 .263 0 .42-.052 1.368-.21 2.577-1.525 2.577-2.998a2.36 2.36 0 0 0-1.945-2.313Z"/><path fill="#000" d="M176.206 22.347c1.525 0 2.997-1.367 2.997-3.05 0-1.261-.946-2.366-2.261-2.366-1.524 0-2.944 1.367-2.944 3.05-.053 1.315.841 2.366 2.208 2.366"/><path stroke="#000" stroke-miterlimit="10" d="M176.206 22.347c1.525 0 2.997-1.367 2.997-3.05 0-1.261-.946-2.366-2.261-2.366-1.524 0-2.944 1.367-2.944 3.05-.053 1.315.841 2.366 2.208 2.366Z"/><path fill="#000" d="M197.291 26.08c1.209 0 1.788 1 1.788 2.682 0 3.208-2.314 6.205-7.361 6.73.42-4.416 2.576-9.411 5.573-9.411m-40.171-3.154c.473-1.42 1.893-2.524 2.786-1.788.631.579.053 1.946-.683 2.682-.736.788-1.893 1.42-1.893 1.42-.526-.316-.526-1.368-.21-2.314m-12.304 3.155c1.209 0 1.788.999 1.788 2.681 0 3.208-2.314 6.205-7.362 6.73.474-4.416 2.629-9.411 5.574-9.411m-95.013 5.258c-1.051 5.205-3.05 11.305-5.573 11.305-1.42 0-1.998-1.42-1.998-4.26 0-5.415 1.893-12.25 7.098-12.25.316 0 1.052.052 1.367.21zm155.007 4.995c0-.21-.21-.42-.421-.42a.46.46 0 0 0-.42.315c-1.367 6.099-4.733 7.676-7.782 7.676-2.261 0-4.627-1.787-4.627-6.572V36.28c4.574-.473 11.094-2.524 11.094-6.993 0-2.734-2.366-4.206-5.31-4.206-7.835 0-13.566 2.681-14.933 8.938l-.421 2.209c-.683 3.312-1.84 6.677-3.628 7.466l-.052.053a1.6 1.6 0 0 1-.684.157c-1.052 0-2.103-.788-1.84-2.418l2.05-9.202c.211-.946.263-1.787.263-2.471 0-1.157-.21-2.156-.578-2.84-.579-1.104-1.262-1.63-2.524-1.682-.21 0-1.525-.053-2.839 1.525s-1.578 4.049-2.314 7.466l-.421 2.156c-.736 3.628-3.207 7.361-5.888 7.361-.842 0-1.473-.578-1.473-1.945 0-3.733 3.944-9.78 3.944-13.093 0-1.787-1.315-3.102-6.152-2.786-.473.052-1.315-.053-1.998-.21 1.788-1 2.997-2.42 2.997-4.05 0-.998-.631-1.682-1.63-1.682-1.577 0-3.207 1.893-3.207 4.101 0 .736.105 1.21.315 1.525-3.26 2.734-3.944 5.574-4.522 8.413l-.421 2.156c-1.367 6.099-4.732 7.676-7.781 7.676-2.261 0-4.627-1.787-4.627-6.572V36.28c4.574-.473 11.094-2.524 11.094-6.993 0-2.734-2.366-4.206-5.311-4.206-7.834 0-13.565 2.681-14.932 8.938l-.421 2.209c-.789 4.154-3.523 6.783-7.098 7.571 2.366-1.262 3.996-3.47 3.996-5.836 0-3.576-2.524-4.89-5.942-7.098-.946-.579-2.471-1.893-2.419-3.734 2.682-1.104 4.47-2.471 4.47-4.469 0-.999-.579-1.788-1.788-1.788-2.208 0-3.47 3.155-3.628 5.679-3.996 1.577-7.414 3.523-7.94 7.466l-.42 2.156c-.526 4.206-3.26 6.836-6.783 7.624 2.366-1.262 3.996-3.47 3.996-5.836 0-3.576-2.524-4.89-5.942-7.098-.946-.579-2.47-1.893-2.418-3.734 2.681-1.104 4.469-2.471 4.469-4.469 0-.999-.578-1.788-1.788-1.788-2.208 0-3.47 3.155-3.628 5.679-3.996 1.577-7.413 3.523-7.94 7.466l-.42 2.156c-.683 3.313-1.84 6.678-3.628 7.414l-.053.052a1.9 1.9 0 0 1-.578.106h-.158c-1.051 0-2.103-.789-1.84-2.419l2.05-9.202c.21-.946.263-1.787.263-2.47 0-1.158-.21-2.157-.578-2.84-.578-1.052-1.21-1.578-2.366-1.683h-.158c-.21 0-1.525-.052-2.84 1.525-.367.473-.683 1.052-.945 1.683-.579 1.472-.842 3.365-1.368 5.784l-.42 2.155c-.631 3.155-2.577 6.363-4.838 7.204-.473.21-.946.315-1.367.315-.525 0-.946-.21-1.21-.63-.367-.474-.577-1.21-.577-2.104 0-.526.052-1.052.105-1.42l3.26-19.928h5.1l.105-.788h-5.1l.999-5.574h-.736c-.158.579-.316 1.104-.526 1.578 0 .052-.053.052-.053.105-.263.63-.63 1.314-1.156 1.893-.263.263-.526.526-.842.736-1.84 1.262-2.103 2.944-2.103 2.944l-.526 3.418c-1.577.053-3.47.631-5.047 3.05-1 1.577-2.051 5.047-2.577 8.623-.42 2.84-1.157 4.68-1.893 5.889-.526.999-1.21 1.735-1.945 1.998-.21.105-.42.105-.684.105-.841 0-1.21-.526-1.21-1.682 0-.368.053-.842.106-1.368l2.314-15.353h-2.472c-1.209-.263-2.629-.42-3.733-.42h-1.21c-6.467.157-8.465 2.418-10.83 5.152-1.157 1.525-1.894 2.471-3.471 3.418-3.576 2.05-7.15 1.525-9.78.736 4.995-.21 11.147-3.838 11.778-11.462.736-8.624-9.044-12.41-16.037-12.41-8.886 0-15.932 3.47-15.932 10.464 0 3.839 2.209 5.994 4.417 5.994 1.262 0 2.156-.473 2.156-1.682s-1.21-1.63-2.419-1.63c-1.577 0-3.155-.42-3.155-2.997 0-6.205 6.625-9.307 14.723-9.307 1.104 0 2.05.105 2.944.315-4.048 1.262-6.52 3.47-7.361 8.203l-2.84 18.613c-.893 4.943-2.05 7.782-4.784 7.782-2.05 0-2.314-3.102-4.364-3.102-.789 0-1.683.473-1.683 1.525 0 1.893 3.155 2.419 5.837 2.419 6.362 0 9.306-4.522 10.2-10.727l2.366-17.772c.316-1.945.841-4.417 2.524-6.1.21-.21.473-.42.736-.578 0 0 .21-.105.263-.157 3.05.525 8.255 2.734 7.782 10.831-.42 6.888-4.68 10.832-8.833 10.832-.369 0-.737 0-1.105-.105-.105 0-.21-.053-.315-.053h-.053a.36.36 0 0 0-.368.368c0 .105.053.263.158.315 0 0 .052.053.158.106.368.21 3.628 1.787 7.571 1.787 1.946 0 3.733-.368 5.784-1.524 1.735-1 2.576-2.051 3.733-3.418 1.63-1.893 2.945-3.26 6.1-4.26-3.734 2.157-6.152 6.52-6.152 11.621 0 4.154 1.577 6.888 4.627 6.888 3.417 0 5.415-3.312 6.52-6.888h.157c-.052.736-.21 1.262-.21 1.788-.315 3.733 1.42 5.1 3.996 5.1.736 0 1.42-.105 1.998-.368.158-.053.368-.158.526-.21.158-.105.316-.158.42-.263.053-.053.106-.105.211-.158.053-.053.158-.105.21-.158.105-.105.21-.21.368-.315l.106-.105c.052-.053.105-.158.157-.21 1.052-1.21 2.209-3.418 2.735-7.257 1.42-10.305 4.837-10.884 6.625-10.936l-2.524 13.618a7 7 0 0 0-.158 1.42c0 2.576 1.21 4.521 3.996 4.942.158 0 .263.053.42.053h.632c.788 0 1.472-.106 2.156-.316 3.102-.946 5.1-3.996 5.941-8.097l.368-2.209c.526-2.576.894-4.521 1.472-5.889.316-.788.737-1.314 1.262-1.682 0 0 .263-.158.526-.105.053 0 .105 0 .158.052.473.21.368 1.262.368 1.262s0 .684-.316 2.261c-.052.368-.157.736-.263 1.104l-.157.474c-.841 2.997-2.261 6.467-2.261 8.886 0 2.786 2.208 4.153 4.785 4.153h.368c.157 0 .263 0 .42-.052.158 0 .316-.053.474-.105.052 0 .105 0 .157-.053l.474-.158c.052 0 .105-.052.157-.052.105-.053.21-.105.368-.158.053-.053.105-.053.158-.105.158-.053.263-.158.42-.263.053-.053.106-.105.158-.105a.63.63 0 0 0 .263-.263l.368-.368.106-.105c.105-.158.21-.263.315-.42l.316-.474c0-.053.052-.105.052-.105.105-.158.21-.316.263-.526.736-1.42 1.21-3.207 1.683-5.258l.368-2.156c.525-3.786 3.575-5.31 7.15-6.835.053 3.47 1.683 4.942 2.892 6.73 1.052 1.63 1.63 3.102 1.63 4.995 0 2.84-1.84 4.89-4.416 4.89-1.578 0-3.208-.316-4.312-1.788.21.053.42.053.631.053 1.525 0 2.945-1.262 2.945-2.997 0-1.262-1-2.366-2.261-2.366-1.578 0-2.945 1.367-2.945 3.05 0 3.26 3.155 4.942 6.362 4.942 7.519 0 11.515-2.997 12.672-8.57l.368-2.156c.526-3.786 3.576-5.311 7.151-6.836.053 3.47 1.683 4.943 2.892 6.73 1.052 1.63 1.63 3.103 1.63 4.996 0 2.839-1.84 4.89-4.417 4.89-1.577 0-3.207-.316-4.311-1.788.21.052.42.052.631.052 1.525 0 2.944-1.262 2.944-2.997 0-1.262-.999-2.366-2.261-2.366-1.577 0-2.944 1.367-2.944 3.05 0 3.26 3.155 4.942 6.362 4.942 7.519 0 11.515-2.997 12.672-8.57l.368-2.261c.999-4.89 5.048-7.362 9.832-8.045-3.891 2.103-6.309 6.835-6.309 10.937 0 4.89 2.944 7.887 7.992 7.887 5.258 0 8.623-2.419 10.043-8.57l.368-2.21c.683-3.101 1.314-5.257 4.311-8.044.579.368 1.578.578 2.524.526 4.154-.263 5.311.63 5.258 1.787-.105 3.103-7.519 6.994-7.519 12.357 0 2.734 2.104 4.206 4.89 4.206 4.364 0 7.099-3.417 8.15-8.413l.368-2.208c.894-4.049 1.21-6.625 2.734-7.571 0 0 .368-.21.684-.053.473.21.368 1.262.368 1.262s0 .683-.315 2.26c-.053.369-.158.737-.263 1.105l-.158.473c-.841 2.997-2.261 6.468-2.261 8.886 0 2.787 2.208 4.154 4.785 4.154.263 0 .526 0 .788-.053.158 0 .316-.052.474-.105.052 0 .105 0 .157-.052l.474-.158c.052 0 .105-.053.157-.053.106-.052.211-.105.368-.157.053-.053.106-.053.158-.105.158-.053.263-.158.421-.263.052-.053.105-.105.158-.105a.63.63 0 0 0 .262-.263c1.578-1.42 2.472-3.997 3.155-7.309l.368-2.261c.999-4.89 5.048-7.361 9.833-8.045-3.891 2.103-6.31 6.836-6.31 10.937 0 4.89 2.945 7.887 7.992 7.887 5.258 0 8.624-2.419 10.043-8.57.158.42.158.367.158.315"/><path stroke="#000" stroke-miterlimit="10" d="M197.291 26.08c1.209 0 1.788 1 1.788 2.682 0 3.208-2.314 6.205-7.361 6.73.42-4.416 2.576-9.411 5.573-9.411Zm-40.171-3.154c.473-1.42 1.893-2.524 2.786-1.788.631.579.053 1.946-.683 2.682-.736.788-1.893 1.42-1.893 1.42-.526-.316-.526-1.368-.21-2.314Zm-12.304 3.155c1.209 0 1.788.999 1.788 2.681 0 3.208-2.314 6.205-7.362 6.73.474-4.416 2.629-9.411 5.574-9.411Zm-95.013 5.258c-1.051 5.205-3.05 11.305-5.573 11.305-1.42 0-1.998-1.42-1.998-4.26 0-5.415 1.893-12.25 7.098-12.25.316 0 1.052.052 1.367.21zm155.007 4.995c0-.21-.21-.42-.421-.42a.46.46 0 0 0-.42.315c-1.367 6.099-4.733 7.676-7.782 7.676-2.261 0-4.627-1.787-4.627-6.572V36.28c4.574-.473 11.094-2.524 11.094-6.993 0-2.734-2.366-4.206-5.31-4.206-7.835 0-13.566 2.681-14.933 8.938l-.421 2.209c-.683 3.312-1.84 6.677-3.628 7.466l-.052.053a1.6 1.6 0 0 1-.684.157c-1.052 0-2.103-.788-1.84-2.418l2.05-9.202c.211-.946.263-1.787.263-2.471 0-1.157-.21-2.156-.578-2.84-.579-1.104-1.262-1.63-2.524-1.682-.21 0-1.525-.053-2.839 1.525s-1.578 4.049-2.314 7.466l-.421 2.156c-.736 3.628-3.207 7.361-5.888 7.361-.842 0-1.473-.578-1.473-1.945 0-3.733 3.944-9.78 3.944-13.093 0-1.787-1.315-3.102-6.152-2.786-.473.052-1.315-.053-1.998-.21 1.788-1 2.997-2.42 2.997-4.05 0-.998-.631-1.682-1.63-1.682-1.577 0-3.207 1.893-3.207 4.101 0 .736.105 1.21.315 1.525-3.26 2.734-3.944 5.574-4.522 8.413l-.421 2.156c-1.367 6.099-4.732 7.676-7.781 7.676-2.261 0-4.627-1.787-4.627-6.572V36.28c4.574-.473 11.094-2.524 11.094-6.993 0-2.734-2.366-4.206-5.311-4.206-7.834 0-13.565 2.681-14.932 8.938l-.421 2.209c-.789 4.154-3.523 6.783-7.098 7.571 2.366-1.262 3.996-3.47 3.996-5.836 0-3.576-2.524-4.89-5.942-7.098-.946-.579-2.471-1.893-2.419-3.734 2.682-1.104 4.47-2.471 4.47-4.469 0-.999-.579-1.788-1.788-1.788-2.208 0-3.47 3.155-3.628 5.679-3.996 1.577-7.414 3.523-7.94 7.466l-.42 2.156c-.526 4.206-3.26 6.836-6.783 7.624 2.366-1.262 3.996-3.47 3.996-5.836 0-3.576-2.524-4.89-5.942-7.098-.946-.579-2.47-1.893-2.418-3.734 2.681-1.104 4.469-2.471 4.469-4.469 0-.999-.578-1.788-1.788-1.788-2.208 0-3.47 3.155-3.628 5.679-3.996 1.577-7.413 3.523-7.94 7.466l-.42 2.156c-.683 3.313-1.84 6.678-3.628 7.414l-.053.052a1.9 1.9 0 0 1-.578.106h-.158c-1.051 0-2.103-.789-1.84-2.419l2.05-9.202c.21-.946.263-1.787.263-2.47 0-1.158-.21-2.157-.578-2.84-.578-1.052-1.21-1.578-2.366-1.683h-.158c-.21 0-1.525-.052-2.84 1.525-.367.473-.683 1.052-.945 1.683-.579 1.472-.842 3.365-1.368 5.784l-.42 2.155c-.631 3.155-2.577 6.363-4.838 7.204-.473.21-.946.315-1.367.315-.525 0-.946-.21-1.21-.63-.367-.474-.577-1.21-.577-2.104 0-.526.052-1.052.105-1.42l3.26-19.928h5.1l.105-.788h-5.1l.999-5.574h-.736c-.158.579-.316 1.104-.526 1.578 0 .052-.053.052-.053.105-.263.63-.63 1.314-1.156 1.893-.263.263-.526.526-.842.736-1.84 1.262-2.103 2.944-2.103 2.944l-.526 3.418c-1.577.053-3.47.631-5.047 3.05-1 1.577-2.051 5.047-2.577 8.623-.42 2.84-1.157 4.68-1.893 5.889-.526.999-1.21 1.735-1.945 1.998-.21.105-.42.105-.684.105-.841 0-1.21-.526-1.21-1.682 0-.368.053-.842.106-1.368l2.314-15.353h-2.472c-1.209-.263-2.629-.42-3.733-.42h-1.21c-6.467.157-8.465 2.418-10.83 5.152-1.157 1.525-1.894 2.471-3.471 3.418-3.576 2.05-7.15 1.525-9.78.736 4.995-.21 11.147-3.838 11.778-11.462.736-8.624-9.044-12.41-16.037-12.41-8.886 0-15.932 3.47-15.932 10.464 0 3.839 2.209 5.994 4.417 5.994 1.262 0 2.156-.473 2.156-1.682s-1.21-1.63-2.419-1.63c-1.577 0-3.155-.42-3.155-2.997 0-6.205 6.625-9.307 14.723-9.307 1.104 0 2.05.105 2.944.315-4.048 1.262-6.52 3.47-7.361 8.203l-2.84 18.613c-.893 4.943-2.05 7.782-4.784 7.782-2.05 0-2.314-3.102-4.364-3.102-.789 0-1.683.473-1.683 1.525 0 1.893 3.155 2.419 5.837 2.419 6.362 0 9.306-4.522 10.2-10.727l2.366-17.772c.316-1.945.841-4.417 2.524-6.1.21-.21.473-.42.736-.578 0 0 .21-.105.263-.157 3.05.525 8.255 2.734 7.782 10.831-.42 6.888-4.68 10.832-8.833 10.832-.369 0-.737 0-1.105-.105-.105 0-.21-.053-.315-.053h-.053a.36.36 0 0 0-.368.368c0 .105.053.263.158.315 0 0 .052.053.158.106.368.21 3.628 1.787 7.571 1.787 1.946 0 3.733-.368 5.784-1.524 1.735-1 2.576-2.051 3.733-3.418 1.63-1.893 2.945-3.26 6.1-4.26-3.734 2.157-6.152 6.52-6.152 11.621 0 4.154 1.577 6.888 4.627 6.888 3.417 0 5.415-3.312 6.52-6.888h.157c-.052.736-.21 1.262-.21 1.788-.315 3.733 1.42 5.1 3.996 5.1.736 0 1.42-.105 1.998-.368.158-.053.368-.158.526-.21.158-.105.316-.158.42-.263.053-.053.106-.105.211-.158.053-.053.158-.105.21-.158.105-.105.21-.21.368-.315l.106-.105c.052-.053.105-.158.157-.21 1.052-1.21 2.209-3.418 2.735-7.257 1.42-10.305 4.837-10.884 6.625-10.936l-2.524 13.618a7 7 0 0 0-.158 1.42c0 2.576 1.21 4.521 3.996 4.942.158 0 .263.053.42.053h.632c.788 0 1.472-.106 2.156-.316 3.102-.946 5.1-3.996 5.941-8.097l.368-2.209c.526-2.576.894-4.521 1.472-5.889.316-.788.737-1.314 1.262-1.682 0 0 .263-.158.526-.105.053 0 .105 0 .158.052.473.21.368 1.262.368 1.262s0 .684-.316 2.261c-.052.368-.157.736-.263 1.104l-.157.474c-.841 2.997-2.261 6.467-2.261 8.886 0 2.786 2.208 4.153 4.785 4.153h.368c.157 0 .263 0 .42-.052.158 0 .316-.053.474-.105.052 0 .105 0 .157-.053l.474-.158c.052 0 .105-.052.157-.052.105-.053.21-.105.368-.158.053-.053.105-.053.158-.105.158-.053.263-.158.42-.263.053-.053.106-.105.158-.105a.63.63 0 0 0 .263-.263l.368-.368.106-.105c.105-.158.21-.263.315-.42l.316-.474c0-.053.052-.105.052-.105.105-.158.21-.316.263-.526.736-1.42 1.21-3.207 1.683-5.258l.368-2.156c.525-3.786 3.575-5.31 7.15-6.835.053 3.47 1.683 4.942 2.892 6.73 1.052 1.63 1.63 3.102 1.63 4.995 0 2.84-1.84 4.89-4.416 4.89-1.578 0-3.208-.316-4.312-1.788.21.053.42.053.631.053 1.525 0 2.945-1.262 2.945-2.997 0-1.262-1-2.366-2.261-2.366-1.578 0-2.945 1.367-2.945 3.05 0 3.26 3.155 4.942 6.362 4.942 7.519 0 11.515-2.997 12.672-8.57l.368-2.156c.526-3.786 3.576-5.311 7.151-6.836.053 3.47 1.683 4.943 2.892 6.73 1.052 1.63 1.63 3.103 1.63 4.996 0 2.839-1.84 4.89-4.417 4.89-1.577 0-3.207-.316-4.311-1.788.21.052.42.052.631.052 1.525 0 2.944-1.262 2.944-2.997 0-1.262-.999-2.366-2.261-2.366-1.577 0-2.944 1.367-2.944 3.05 0 3.26 3.155 4.942 6.362 4.942 7.519 0 11.515-2.997 12.672-8.57l.368-2.261c.999-4.89 5.048-7.362 9.832-8.045-3.891 2.103-6.309 6.835-6.309 10.937 0 4.89 2.944 7.887 7.992 7.887 5.258 0 8.623-2.419 10.043-8.57l.368-2.21c.683-3.101 1.314-5.257 4.311-8.044.579.368 1.578.578 2.524.526 4.154-.263 5.311.63 5.258 1.787-.105 3.103-7.519 6.994-7.519 12.357 0 2.734 2.104 4.206 4.89 4.206 4.364 0 7.099-3.417 8.15-8.413l.368-2.208c.894-4.049 1.21-6.625 2.734-7.571 0 0 .368-.21.684-.053.473.21.368 1.262.368 1.262s0 .683-.315 2.26c-.053.369-.158.737-.263 1.105l-.158.473c-.841 2.997-2.261 6.468-2.261 8.886 0 2.787 2.208 4.154 4.785 4.154.263 0 .526 0 .788-.053.158 0 .316-.052.474-.105.052 0 .105 0 .157-.052l.474-.158c.052 0 .105-.053.157-.053.106-.052.211-.105.368-.157.053-.053.106-.053.158-.105.158-.053.263-.158.421-.263.052-.053.105-.105.158-.105a.63.63 0 0 0 .262-.263c1.578-1.42 2.472-3.997 3.155-7.309l.368-2.261c.999-4.89 5.048-7.361 9.833-8.045-3.891 2.103-6.31 6.836-6.31 10.937 0 4.89 2.945 7.887 7.992 7.887 5.258 0 8.624-2.419 10.043-8.57.158.42.158.367.158.315Z"/></svg>