<svg xmlns="http://www.w3.org/2000/svg" width="66" height="66" fill="none"><path fill="#000" d="M33 38.801c3.197 0 5.814-2.604 5.814-5.814a5.8 5.8 0 0 0-1.096-3.39c-1.057-1.456-2.772-2.423-4.705-2.423a5.79 5.79 0 0 0-4.705 2.423 5.8 5.8 0 0 0-1.096 3.39A5.793 5.793 0 0 0 33 38.802M45.684 25.897v-5.593999999999999h-.721l-4.873.013.026 5.594z"/><path fill="#000" d="M42.023 33c0 4.975-4.047 9.023-9.023 9.023S23.977 37.975 23.977 33c0-1.2.244-2.346.67-3.39h-4.924v13.509a3.163 3.163 0 0 0 3.158 3.158h20.238a3.163 3.163 0 0 0 3.158-3.158v-13.51h-4.924a8.7 8.7 0 0 1 .67 3.39"/><path fill="#000" d="M33 0C14.773 0 0 14.773 0 33s14.773 33 33 33 33-14.773 33-33S51.227 0 33 0m16.5 29.61v13.51c0 3.518-2.862 6.38-6.38 6.38H22.88a6.387 6.387 0 0 1-6.38-6.38V22.867c0-3.52 2.862-6.38 6.38-6.38h20.24c3.518 0 6.38 2.86 6.38 6.38z"/></svg>