<svg xmlns="http://www.w3.org/2000/svg" width="66" height="66" fill="none" xmlns:v="https://vecta.io/nano"><path d="M33 0C14.773 0 0 14.773 0 33s14.773 33 33 33 33-14.773 33-33S51.227 0 33 0zm-9.23 46.806h-6.432V26.22h6.432v20.586zm-3.39-23.164h-.052c-2.333 0-3.841-1.573-3.841-3.571 0-2.037 1.56-3.571 3.932-3.571s3.829 1.534 3.88 3.571c.013 1.985-1.495 3.571-3.919 3.571zM49.5 46.806h-7.296V36.158c0-2.784-1.134-4.692-3.648-4.692-1.921 0-2.991 1.289-3.48 2.527-.181.438-.155 1.057-.155 1.689v11.125h-7.232V26.22h7.232v3.236c.425-1.418 2.733-3.429 6.42-3.429 4.576 0 8.16 2.965 8.16 9.333v11.447z" fill="#000"/></svg>