<svg xmlns="http://www.w3.org/2000/svg" width="204" height="45" fill="none"><path fill="#8F98A9" fill-rule="evenodd" d="M24.499 7.345c-.174-.823-1.578-2.715-3.152-2.715-.352 0-.585.06-.817.121 1.517.591 2.683 2.12 3.036 3.186l.874-.531v-.06zm9.92 35.84-5.669-3.838c-.681-.462-1.474-1.334-1.474-2.962V22.487l-.568.35-.225.117V36.79c0 1.164.621 2.384 1.47 2.965l5.729 3.895zM9.933 29.242c.111-2.358-.388-5.234-.89-7.996-.503-2.817-.952-5.694-.895-8.22.057-1.552.336-3.048.949-4.429-1.06 1.667-1.727 3.564-1.785 5.578-.167 4.888 2.12 11.269 1.895 16.219q-.069 1.007-.164 2.012l.11-.116c.447-.634.726-1.61.78-3.048m7.952 13.858c-.85-1.713-2.889-2.758-5.271-2.758-.229.053-.456.053-.681.053 2.325.388 4.308 1.655 5.047 3.254zm20.502-20.449-1.984-2.15.06 1.433 1.047 1.213zm54.358-12.07-4.757-2.828.714-.478 4.577 2.707c-.179.179-.357.358-.534.6m1.13 33.068-1.952-1.377c-1.283-.916-1.95-2.464-1.95-4.182V18.956c0-2.636.558-4.47 1.448-5.728-.501 1.258-.725 2.806-.725 4.583l.055 19.591c0 2.12.615 3.496 2.066 4.527l1.785 1.263-.726.458m-15.807-.175s-.184.116-.306.175h-.49V11.663c0-1.547-.121-1.547-1.1-2.237l-1.41-1.031.92-.458c.734.571 1.838 1.376 1.838 1.434.428.4.548.628.548 1.546v32.615zM54.688 3.97c-.489 1.276-.428 2.496.183 3.495.553.886 1.53 1.498 2.695 1.776-3.612.276-5.2-2.33-2.879-5.271m8.5 27.777c.236-.912.331-1.938.331-3.02v-16.57c0-1.992-.095-2.217-.662-2.843h.096c.801-.172 1.227 0 1.227 1.705v16.627c0 1.937-.282 3.189-.991 4.1M64.61 43.65c-.472-1.565-1.902-2.888-4.398-3.25.36-.058.715-.058 1.073-.058 3.087.057 3.98 1.982 4.16 2.584l.058.179zm84.885-.407-1.703-1.04c-1.537-.929-2.333-2.372-2.333-4.571V21.957c0-.925-.055-.866-.399-1.157 0 0-1.193-.984-1.989-1.62l-.851.466 1.647 1.27c.911.692.798.75.798 2.14v15.212c0 2.082.852 3.528 2.045 4.226l2.046 1.156zm-15.873.287V20.044l-.889-.864-1.095.52 1.025.98v22.97h.553c.134-.06.339-.119.339-.119zm-18.518-.288-6.612-4.025c-1.324-.816-1.838-1.806-1.838-3.556V22.487l-.576.292-.232.115v13.41c0 1.574.689 2.738 1.898 3.44l6.61 3.906zm3.307-7.53V22.65c0-.688-.218-.92-.717-1.204l-2.59-1.604v.86l1.489.858c1.101.63 1.101.745 1.101 1.95l-.053 11.746zm52.247-23.595v-.168c0-1.577-.911-3.208-2.31-4.055-.535-.338-1.015-.62-1.015-.62l-.643.452.373.223c1.822 1.073 2.847 2.423 2.847 4.616zm21.163 31.066-5.684-3.837c-.673-.462-1.462-1.334-1.462-2.962V22.487l-.564.35-.226.117v13.66c0 1.512.565 2.56 1.52 3.2l5.626 3.836zm-24.47.66-6.071-3.973c-1.456-.931-1.739-1.81-1.739-3.506V23.809l-.451.236-.336.173v12.44c0 1.99.619 2.866 1.573 3.507l6.291 4.146zm27.777-21.193-1.984-2.148.059 1.432 1.048 1.213zM171.98 36.376V17.857l-1.323.528v17.462z" clip-rule="evenodd"/><path fill="#1A171B" fill-rule="evenodd" d="m25.948 38.155-.689-1.383-1.783 1.15c-1.323-1.615-3.457-3.515-8.525-3.515C9.593 34.351 3.024 38.61.03 42.297l.519.691c4.088-2.708 8.296-3.913 11.983-3.913 2.996 0 5.472 1.439 6.507 3.568zM31.482 6.59c-1.038-1.612-3.802-4.605-9.276-4.605-6.565-.056-12.323 5.068-12.555 11.288-.174 4.953 2.189 11.345 1.957 16.298-.114 1.671-.462 2.88-1.15 3.8l.688.808 4.034-2.936c1.96-1.445 3.053-3.228 2.995-6.336-.057-3.86-1.844-9.791-1.844-14.34 0-3.917 1.5-6.854 4.898-6.854 2.305 0 4.148 2.36 4.434 3.686.118.631 0 .92-.575 1.323L23.476 9.82v1.783l8.007-5.013m14.841 15.321-7.72-8.523-12.041 7.024v1.612l2.478-1.38v15.954c0 .92.347 1.496.921 1.9l6.395 4.145 9.047-5.242-.75-1.613-4.724 2.535-4.262-2.939c-.52-.342-.577-.689-.577-1.438v-5.183zm-6.05 1.267-5.183 3.224v-8.409l.461-.286zm26.168 19.636c-.579-1.623-2.255-3.299-5.267-3.414-2.838-.058-6.89 1.043-10.244 3.588l-.639-.811c2.433-2.662 8.105-6.94 14.064-7.001 3.129 0 5.327 1.043 6.89 2.72l2.606-1.447.753 1.506zm35.711-35.465c-2.26 1.33-3.014 3.126-3.014 5.903v22.154c0 1.392.176 2.025.928 2.433l.753.406 2.083-1.22.696 1.394-7.236 4.34-2.487-1.681c-1.104-.751-1.568-1.678-1.568-3.472V17.82c0-3.701 1.161-5.671 2.781-6.884l.927-.694-6.83-3.994-3.068 1.85V36.91c0 2.43-.347 2.778-2.492 3.876 0 0-1.674.811-3.985 2.026h-.465V10.88c0-1.56-.176-1.91-1.044-2.604L75.702 6.31 72.75 7.986v16.548c0 2.89-.463 4.974-2.777 6.419l-5.787 3.645-.582-.982c1.796-1.391 2.2-3.36 2.2-5.673V11.052c0-2.488-.344-3.47-2.951-3.008a85 85 0 0 1-3.414.52c-3.822.522-5.443-2.198-2.838-5.611 0 0 .638-.868 2.258-2.953l1.276.87-.93 1.33c-1.213 1.739-.23 2.664 1.74 1.967.925-.348 2.718-1.04 3.991-1.563 5.497-2.138 7.525 1.39 7.814 3.473L79.58 1.97l5.9 4.51 7.291-4.51 5.616 3.183c1.909 1.096 2.835.634 4.167-.061l1.101-.578.867 1.448zM128.25 35.28l-.518-1.26-2.013 1.03V19.527c0-.798-.285-1.43-1.091-1.891l-7.421-4.41-12.024 6.988v1.663l2.476-1.432v15.178c0 1.373.342 1.891 1.209 2.406l7.304 4.297zm28.519 3.265-.575-1.318-2.13 1.206-.744-.46c-.806-.459-.98-1.034-.98-2.408V19.128c0-1.319-.287-1.889-1.094-2.463l-4.43-3.323-6.845 3.897-3.622-3.897-7.249 4.413.979 1.142 2.472-1.485 1.783 2.003v22.8h.461c2.876-1.266 3.796-1.664 3.796-1.664 1.381-.574 1.785-1.032 1.785-2.634v-19.02l2.36-1.373 2.76 2.178c.746.628.86 1.144.86 2.116l.058 15.583c0 1.716.519 2.69 1.667 3.378l2.419 1.436zm-37.09-.858-.344.058-4.719-2.751c-.802-.459-.979-.974-.979-2.007l.061-15.063.343-.116 4.546 2.637c.918.515 1.092.974 1.092 1.946zm53.045.61-.347.058-4.1-2.668c-.805-.519-1.094-.925-1.094-1.964V18.955l5.136-3.131.405.232zm8.543-2.375-.518-1.332-2.08 1.097V11.136c0-3.59-1.615-5.905-4.27-7.528l-2.597-1.623-8.143 4.748 1.616.754 2.659-1.447 1.728.984c1.849 1.042 3.062 3.13 3.062 5.27v.925l-13.971 8.108v1.565l2.366-1.274v14.71c0 1.272.346 1.795 1.154 2.316l6.928 4.344zm22.457-13.784-7.795-8.57-12.065 7.062v1.622l2.482-1.387v16.043c0 .924.347 1.504.923 1.91l6.41 4.17 9.062-5.273-.69-1.62-4.735 2.548-4.273-2.956c-.579-.404-.635-.693-.635-1.445V29.03zm-6.119 1.275-5.196 3.242V18.2l.52-.289z" clip-rule="evenodd"/></svg>