<svg xmlns="http://www.w3.org/2000/svg" width="204" height="87" fill="none"><path fill="#000" d="M47.138 67.366v5.964h6.666v3.61h-6.666v9.45h-3.977V63.76H55.09v3.61h-7.952zM71.053 77.915l5.2 8.473H71.48l-4.558-7.952H64.14v7.952h-3.978V63.756h6.485c3.7 0 5.2.427 6.516 1.315 1.987 1.346 3.12 3.64 3.12 6.118 0 3.24-1.988 5.932-5.23 6.726m-.308-9.755c-.918-.61-2.08-.794-3.7-.794H64.14v7.86h3.363c3.58 0 4.832-1.986 4.832-3.943 0-1.32-.581-2.451-1.59-3.123M98.086 86.388l-2.11-5.077h-8.99l-2.141 5.076H80.44l10.643-23.12h.919l10.519 23.12zm-6.576-15.69-3.396 7.43h6.73zM125.517 86.815h-1.162l-13.488-15.201h-.124v14.77h-3.854v-23.06h1.162l13.519 15.139h.123v-14.71h3.824zM141.878 86.815c-6.82 0-11.866-5.383-11.866-11.745 0-6.178 4.803-11.745 11.836-11.745 6.301 0 9.938 4.558 10.736 7.494h-4.374c-1.039-1.867-3.363-3.854-6.392-3.854-4.589 0-7.708 3.884-7.708 8.075 0 4.375 3.303 8.135 7.738 8.135 3.456 0 5.473-2.508 6.392-3.794h4.341c-1.406 4.375-5.717 7.434-10.703 7.434M157.29 63.756h12.51v3.61h-8.533v5.75h7.127v3.61h-7.127v6.055h8.533v3.61h-12.51zM202.838 33.005l-.013.32c-.231 5.083-2.014 9.16-5.3 12.12-5.811 5.233-14.37 4.792-16.581 4.765h-.404V26.53c.107 0 .547 0 .658-.004 4.147-.027 8.976-.4 9.781 9.955l.023.307h.799V15.215h-.788l-.034.297c-1.062 9.825-6.024 9.785-10.069 9.795h-.37V2.728c.534-.003 1.409-.01 1.947-.02 7.627-.116 15.185-.901 18.4 15.326l.054.27h.811V1.47h-43.844v1.16h3.88v35.525c-.093 5.103-2.09 8.236-3.844 9.895-2.117 2.008-5.083 3.06-7.764 2.966-9.892-.357-10.169-10.306-10.176-10.737V2.628h4.505V1.47h-17.522v1.16h4.648l-.013 33.488c0 9.157 4.652 16.22 18.237 16.22 9.11 0 13.292-7.567 13.198-13.842V2.628h4.131v.007h4.899v47.559h-4.421v1.195h36.087V33.005zM111.575 30.026v1.162h4.034v10.41c-.007 7.774-5.163 9.504-9.207 9.584-4.365.07-7.29-2.067-8.947-6.506-1.633-4.328-2.494-8.505-2.494-18.233 0-3.464.534-14.821 3.092-19.79.972-1.874 2.782-5.357 8.178-5.357h.051c6.578.026 10.359 4.582 13.425 16.794l.063.254h.745V0h-.718l-.087.207c-.701 1.68-2.375 2.047-3.817 2.014a11 11 0 0 1-1.777-.22c-.407-.09-.668-.174-.681-.178-.635-.2-1.196-.39-1.71-.56q-.35-.118-.688-.211c-1.66-.551-2.899-.902-4.819-.902-8.65 0-20.552 8.79-20.552 26.924 0 14.81 8.897 25.27 21.04 25.27 2.26 0 4.127-.741 5.884-1.556.327-.134.651-.27.962-.418 1.716-.814 3.343-1.586 5.173-1.683q.11-.003.22-.006c.05 0 .1-.004.154-.004 1.058 0 3.182.685 3.593 2.722l.053.267.712.004V31.195h3.82v-1.163h-15.702zM59.919.257c-10.26 0-21.5 10.253-21.5 25.905s11.611 26.042 21.5 26.042c9.891 0 21.5-10.39 21.5-26.042C81.422 10.51 70.176.257 59.918.257M71.907 24.24q.007.17.007.337.005.123.004.247l.003.194q.001.155.003.3v.114q.001.159.003.307v.7010000000000001c-.013 2.896-.257 14.09-3.189 19.67-1.653 3.233-4.922 4.943-8.82 4.943-3.897 0-7.166-1.71-8.823-4.946-2.932-5.577-3.175-16.775-3.189-19.667v-.701q0-.148.003-.307v-.114c0-.096.004-.197.004-.3l.003-.194c0-.08.004-.164.004-.247q.003-.166.006-.337l.003-.12c.114-4.462.672-12.844 3.166-17.77 2.024-4.081 6.068-4.936 8.827-4.936 2.755 0 6.799.858 8.82 4.942 2.494 4.923 3.048 13.305 3.162 17.767q.002.056.003.117M32.892 1.476V2.62h4.084L26.082 39.073 12.928 2.62h3.733v-.668h.004v-.477H.057V2.62h4.809L23.294 51.66h.264L38.235 2.621h4.498V1.476z"/></svg>