<svg xmlns="http://www.w3.org/2000/svg" width="199" height="75" fill="none"><path fill="#000" d="M.086 1.488h.62v-.62z"/><path fill="#000" d="M.375.868v6.945h11.45v65.973h10.541V7.813h10.83V.868z"/><path fill="#000" d="M26.913 19.263h9.632v3.018s5.415-4.506 10.83-3.596v9.631h-3.307s-7.234.29-6.944 5.126v40.055H26.871V19.263zm48.158-.29h10.582l6.325 34.93 5.704-34.64h6.614L94.044 73.787h-8.143z"/><path fill="#000" d="M122.071 63.246v-12.03h10.541s2.728 22.281-14.757 22.901c-17.775.62-15.667-32.243-15.667-32.243s-1.199-21.37 15.377-23.19c0 0 16.866-1.199 15.378 28.605h-19.884v16.577s.621 6.324 4.837 6.324c4.175-.33 4.175-6.944 4.175-6.944m-.289-32.822c-.29-7.813-4.506-7.813-4.506-7.813-4.506 0-4.506 7.813-4.506 7.813v12.36h8.722c.29-.331.579-4.547.29-12.36m44.271 32.822v-12.03h10.541s2.729 22.281-14.757 22.901c-17.775.62-15.667-32.243-15.667-32.243s-1.198-21.37 15.378-23.19c0 0 16.865-1.199 15.377 28.605h-19.883v16.577s.62 6.324 4.836 6.324c3.886-.33 4.175-6.944 4.175-6.944m-.289-32.822c-.289-7.813-4.506-7.813-4.506-7.813-4.505 0-4.505 7.813-4.505 7.813v12.36h8.722c.289-.331.289-4.547.289-12.36m-31.333 43.362h9.921V0h-9.921zm43.982-55.143h9.632v3.018s5.415-4.506 10.83-3.597v9.632h-3.307s-6.945.29-6.945 5.125v40.965h-10.251V18.643zM47.995 35.55s-2.108-16.576 14.137-16.866c0 0 13.848-.91 13.848 16.866v38.236h-9.342V70.77s-3.596 3.596-9.342 3.596c-5.705 0-8.433-3.927-9.053-5.415-1.819-3.018-2.397-14.468.62-19.263 0 0 2.108-3.307 6.945-6.614 2.397-1.488 3.927-2.728 5.126-3.307.62-.29 1.198-.91 1.488-1.199 0 0 3.307-2.397 3.596-3.307v-7.275s-.29-5.126-3.927-5.126-4.216 5.415-4.216 5.415v7.234h-9.88zm13.848 31.623c3.596 0 4.216-4.837 4.216-4.837V41.544c-.62.62-2.108 1.488-3.927 2.397-1.819 1.199-3.596 2.108-4.216 2.728-.91 1.2-1.199 2.729-1.199 2.729v13.269c.29.29 1.199 4.505 5.126 4.505M44.977 5.414c-.62-2.108-1.818-2.728-2.728-2.728-2.728 0-3.307 3.927-3.307 5.704 0 2.729.91 5.416 3.018 5.416.29 0 2.398 0 3.307-2.729l2.728.91c-.29.91-.29 1.488-1.199 2.728-.91 1.199-2.108 2.397-4.505 2.397-2.729 0-6.325-1.818-6.325-7.812C35.925 3.596 38.942.868 42.25.868c3.927 0 5.126 3.596 5.126 4.216zm8.144 11.12c2.397 0 4.836-1.82 4.836-6.035 0-2.729-.91-5.705-4.836-5.705-2.398 0-4.506 2.108-4.506 6.035-.33 4.217 2.398 5.705 4.506 5.705m0-2.108c-2.108 0-2.108-3.018-2.108-3.927 0-1.82.29-3.927 2.108-3.927s2.108 2.728 2.108 3.596c-.33.95-.33 4.258-2.108 4.258m14.137 1.818H64.53V8.102c0-.62 0-1.199-.91-1.199-.909 0-1.488.62-2.397 1.488v7.813h-2.728V4.795h2.728v1.488c.62-.62 1.819-1.819 3.596-1.819 1.488 0 2.398 3.018 2.398 3.018v8.763zm10.252 0V0H74.78v6.035c-1.198-1.488-2.397-1.488-2.728-1.488-2.397 0-3.927 2.728-3.927 5.705 0 3.307 1.488 5.704 3.927 5.704 1.488 0 2.398-1.199 2.728-1.488v1.199h2.729zm-4.547-9.011c.909 0 1.488.62 1.819 1.199v4.836c-.29.29-.91 1.199-1.82 1.199-1.818 0-2.108-2.398-2.108-3.307 0-1.24 0-3.927 2.109-3.927m9.962-3.638L86.52.29h-3.017l-2.729 3.307zm-1.819 7.524c0 2.728 1.488 3.017 2.108 3.017 1.199 0 1.819-.91 2.108-1.488l2.109.91c-.29.62-1.489 3.017-4.217 3.017s-4.836-2.108-4.836-6.035c0-3.307 2.108-5.705 4.836-5.705 2.398 0 3.597 1.489 4.217 3.018.289 1.199.289 2.108.289 3.307h-6.614zm4.216-1.778c0-2.108-1.488-2.728-2.108-2.728-.91 0-2.108.62-2.108 2.728zM96.483.29l6.036 10.541V.29h2.728v15.955h-2.728l-6.036-11.16v11.16h-2.728V.29zm18.685 15.667c-.29-.62-.29-1.488-.29-2.108V8.722c0-3.017-2.397-3.596-3.927-3.596-1.488 0-3.017.62-4.216 2.108l1.488 1.488c.62-.91 1.488-1.488 2.398-1.488.909 0 1.818.62 1.818 1.819v.29c-3.017.289-6.035 1.487-6.035 4.216 0 1.818 1.488 3.017 3.307 3.017 1.488 0 2.398-.91 3.018-1.199 0 .29 0 .62.289 1.2h2.108zm-6.325-3.017c0-1.82 2.728-2.398 3.596-2.398v2.728c-.289.29-1.488 1.199-2.397 1.199-.62-.33-1.199-.62-1.199-1.53m13.559-5.416c-1.199-.91-1.819-.91-2.398-.91-.909 0-1.488.621-1.488 1.2 0 .91.909 1.198 2.108 1.488 1.488.29 3.927.91 3.927 3.307 0 1.488-1.199 3.596-4.506 3.596-2.397 0-3.596-1.199-4.216-2.108l1.488-1.199c.62.62 1.488 1.199 2.728 1.199.91 0 1.819-.29 1.819-1.199 0-.91-.909-1.199-2.108-1.488-1.199-.29-3.927-.91-3.927-3.596 0-1.82 1.819-3.597 3.927-3.597 1.819 0 3.307.91 3.927 1.489zm6.324-6.324v3.596h1.819v2.108h-1.819v6.036c0 .909.91.909 1.819 1.198v2.398c-1.488 0-2.398 0-3.307-.62s-1.199-1.82-1.199-3.018V6.903h-1.529V4.795h1.488V1.2z"/></svg>