<svg xmlns="http://www.w3.org/2000/svg" width="204" height="82" fill="none"><path fill="#000" fill-rule="evenodd" d="M6.21 80.44H0v1.205h34.382V59.96h-1.02s0 12.51-4.17 16.588c-3.521 3.522-7.228 3.8-13.252 3.8V40.406s4.17-.279 6.209 1.76c3.15 3.151 3.521 7.229 3.521 12.882h1.113V24.466H25.67c0 5.653-.278 9.73-3.521 12.881-2.039 2.04-6.21 1.761-6.21 1.761V1.205c6.025 0 8.897.37 12.419 3.8 4.078 4.077 4.17 16.588 4.17 16.588h1.02V0H0v1.205h6.21zM73.397 1.205V80.44c6.024 0 9.73-.37 13.252-3.8 4.078-4.077 4.17-16.588 4.17-16.588h1.02v21.686H57.457v-1.205h6.21V1.113h-6.21V0H79.05v1.205zM128.63 1.205V80.44c6.024 0 9.731-.37 13.253-3.8 4.077-4.077 4.17-16.588 4.17-16.588h1.019v21.686h-34.381v-1.205h6.209V1.113h-6.209V0h21.593v1.205zM175.523 80.44h-6.209v1.205h34.382V59.96h-1.02s0 12.51-4.17 16.588c-3.521 3.522-7.228 3.8-13.252 3.8V40.406s4.17-.279 6.209 1.76c3.151 3.151 3.522 7.229 3.522 12.882h1.112V24.466h-1.112c0 5.653-.278 9.73-3.522 12.881-2.039 2.04-6.209 1.761-6.209 1.761V1.205c6.024 0 8.897.37 12.418 3.8 4.078 4.077 4.17 16.588 4.17 16.588h1.02V0h-33.548v1.205h6.209z" clip-rule="evenodd"/></svg>